<mxfile host="Electron" agent="Mozilla/5.0 (X11; Linux x86_64) AppleWebKit/537.36 (KHTML, like Gecko) draw.io/24.7.8 Chrome/128.0.6613.36 Electron/32.0.1 Safari/537.36" version="24.7.8">
  <diagram name="Page-1" id="SSF-qRTuFEGHfWK87924">
    <mxGraphModel dx="521" dy="491" grid="1" gridSize="10" guides="1" tooltips="1" connect="1" arrows="1" fold="1" page="1" pageScale="1" pageWidth="850" pageHeight="1100" math="1" shadow="0">
      <root>
        <mxCell id="0" />
        <mxCell id="1" parent="0" />
        <mxCell id="XbLqfCah3fl3YUQZX58t-34" value="&lt;font color=&quot;#67ab9f&quot; style=&quot;font-size: 14px;&quot;&gt;$$x_e[n]$$&lt;/font&gt;" style="text;html=1;align=center;verticalAlign=middle;whiteSpace=wrap;rounded=0;" parent="1" vertex="1">
          <mxGeometry x="40" y="470" width="60" height="30" as="geometry" />
        </mxCell>
        <mxCell id="XbLqfCah3fl3YUQZX58t-45" value="&lt;font color=&quot;#67ab9f&quot; style=&quot;font-size: 14px;&quot;&gt;$$x[n]$$&lt;/font&gt;" style="text;html=1;align=center;verticalAlign=middle;whiteSpace=wrap;rounded=0;" parent="1" vertex="1">
          <mxGeometry x="40" y="300" width="60" height="30" as="geometry" />
        </mxCell>
        <mxCell id="XbLqfCah3fl3YUQZX58t-52" value="" style="endArrow=blockThin;html=1;rounded=0;strokeWidth=2;endFill=1;" parent="1" edge="1">
          <mxGeometry width="50" height="50" relative="1" as="geometry">
            <mxPoint x="80" y="560" as="sourcePoint" />
            <mxPoint x="390" y="560" as="targetPoint" />
          </mxGeometry>
        </mxCell>
        <mxCell id="XbLqfCah3fl3YUQZX58t-53" value="" style="endArrow=none;html=1;rounded=0;strokeWidth=1;fillColor=#d5e8d4;strokeColor=#CCCCCC;dashed=1;dashPattern=12 12;" parent="1" edge="1">
          <mxGeometry width="50" height="50" relative="1" as="geometry">
            <mxPoint x="110" y="480" as="sourcePoint" />
            <mxPoint x="370" y="480" as="targetPoint" />
          </mxGeometry>
        </mxCell>
        <mxCell id="XbLqfCah3fl3YUQZX58t-54" value="" style="endArrow=oval;html=1;rounded=0;strokeColor=#82b366;strokeWidth=3;fillColor=#d5e8d4;endFill=1;" parent="1" edge="1">
          <mxGeometry width="50" height="50" relative="1" as="geometry">
            <mxPoint x="120" y="560" as="sourcePoint" />
            <mxPoint x="120" y="480" as="targetPoint" />
          </mxGeometry>
        </mxCell>
        <mxCell id="XbLqfCah3fl3YUQZX58t-55" value="" style="endArrow=oval;html=1;rounded=0;strokeColor=#EA6B66;strokeWidth=3;fillColor=#d5e8d4;endFill=1;jumpSize=10;" parent="1" edge="1">
          <mxGeometry width="50" height="50" relative="1" as="geometry">
            <mxPoint x="200" y="560" as="sourcePoint" />
            <mxPoint x="200" y="550" as="targetPoint" />
          </mxGeometry>
        </mxCell>
        <mxCell id="XbLqfCah3fl3YUQZX58t-56" value="$$0$$" style="text;html=1;align=center;verticalAlign=middle;whiteSpace=wrap;rounded=0;" parent="1" vertex="1">
          <mxGeometry x="90" y="560" width="60" height="30" as="geometry" />
        </mxCell>
        <mxCell id="XbLqfCah3fl3YUQZX58t-57" value="$$1$$" style="text;html=1;align=center;verticalAlign=middle;whiteSpace=wrap;rounded=0;" parent="1" vertex="1">
          <mxGeometry x="170" y="560" width="60" height="30" as="geometry" />
        </mxCell>
        <mxCell id="XbLqfCah3fl3YUQZX58t-58" value="" style="endArrow=oval;html=1;rounded=0;strokeColor=#82b366;strokeWidth=3;fillColor=#d5e8d4;endFill=1;" parent="1" edge="1">
          <mxGeometry width="50" height="50" relative="1" as="geometry">
            <mxPoint x="280" y="560" as="sourcePoint" />
            <mxPoint x="280" y="480" as="targetPoint" />
          </mxGeometry>
        </mxCell>
        <mxCell id="XbLqfCah3fl3YUQZX58t-59" value="$$2$$" style="text;html=1;align=center;verticalAlign=middle;whiteSpace=wrap;rounded=0;" parent="1" vertex="1">
          <mxGeometry x="250" y="560" width="60" height="30" as="geometry" />
        </mxCell>
        <mxCell id="XbLqfCah3fl3YUQZX58t-60" value="$$n$$" style="text;html=1;align=center;verticalAlign=middle;whiteSpace=wrap;rounded=0;" parent="1" vertex="1">
          <mxGeometry x="360" y="560" width="60" height="30" as="geometry" />
        </mxCell>
        <mxCell id="XbLqfCah3fl3YUQZX58t-61" value="" style="endArrow=oval;html=1;rounded=0;strokeColor=#EA6B66;strokeWidth=3;fillColor=#d5e8d4;endFill=1;" parent="1" edge="1">
          <mxGeometry width="50" height="50" relative="1" as="geometry">
            <mxPoint x="359.6" y="560" as="sourcePoint" />
            <mxPoint x="360" y="550" as="targetPoint" />
          </mxGeometry>
        </mxCell>
        <mxCell id="XbLqfCah3fl3YUQZX58t-62" value="$$3$$" style="text;html=1;align=center;verticalAlign=middle;whiteSpace=wrap;rounded=0;" parent="1" vertex="1">
          <mxGeometry x="325" y="560" width="60" height="30" as="geometry" />
        </mxCell>
        <mxCell id="XbLqfCah3fl3YUQZX58t-63" value="" style="endArrow=blockThin;html=1;rounded=0;strokeWidth=2;endFill=1;" parent="1" edge="1">
          <mxGeometry width="50" height="50" relative="1" as="geometry">
            <mxPoint x="80" y="400" as="sourcePoint" />
            <mxPoint x="390" y="400" as="targetPoint" />
          </mxGeometry>
        </mxCell>
        <mxCell id="XbLqfCah3fl3YUQZX58t-64" value="" style="endArrow=none;html=1;rounded=0;strokeWidth=1;fillColor=#d5e8d4;strokeColor=#CCCCCC;dashed=1;dashPattern=12 12;" parent="1" edge="1">
          <mxGeometry width="50" height="50" relative="1" as="geometry">
            <mxPoint x="110" y="320" as="sourcePoint" />
            <mxPoint x="370" y="320" as="targetPoint" />
          </mxGeometry>
        </mxCell>
        <mxCell id="XbLqfCah3fl3YUQZX58t-65" value="" style="endArrow=oval;html=1;rounded=0;strokeColor=#82b366;strokeWidth=3;fillColor=#d5e8d4;endFill=1;" parent="1" edge="1">
          <mxGeometry width="50" height="50" relative="1" as="geometry">
            <mxPoint x="120" y="400" as="sourcePoint" />
            <mxPoint x="120" y="320" as="targetPoint" />
          </mxGeometry>
        </mxCell>
        <mxCell id="XbLqfCah3fl3YUQZX58t-67" value="$$0$$" style="text;html=1;align=center;verticalAlign=middle;whiteSpace=wrap;rounded=0;" parent="1" vertex="1">
          <mxGeometry x="90" y="400" width="60" height="30" as="geometry" />
        </mxCell>
        <mxCell id="XbLqfCah3fl3YUQZX58t-69" value="" style="endArrow=oval;html=1;rounded=0;strokeColor=#82b366;strokeWidth=3;fillColor=#d5e8d4;endFill=1;" parent="1" edge="1">
          <mxGeometry width="50" height="50" relative="1" as="geometry">
            <mxPoint x="280" y="400" as="sourcePoint" />
            <mxPoint x="280" y="320" as="targetPoint" />
          </mxGeometry>
        </mxCell>
        <mxCell id="XbLqfCah3fl3YUQZX58t-70" value="$$1$$" style="text;html=1;align=center;verticalAlign=middle;whiteSpace=wrap;rounded=0;" parent="1" vertex="1">
          <mxGeometry x="250" y="400" width="60" height="30" as="geometry" />
        </mxCell>
        <mxCell id="XbLqfCah3fl3YUQZX58t-71" value="$$n$$" style="text;html=1;align=center;verticalAlign=middle;whiteSpace=wrap;rounded=0;" parent="1" vertex="1">
          <mxGeometry x="360" y="400" width="60" height="30" as="geometry" />
        </mxCell>
        <mxCell id="XbLqfCah3fl3YUQZX58t-76" value="&lt;font color=&quot;#ea6b66&quot; style=&quot;font-size: 14px;&quot;&gt;$$A$$&lt;/font&gt;" style="text;html=1;align=center;verticalAlign=middle;whiteSpace=wrap;rounded=0;" parent="1" vertex="1">
          <mxGeometry x="370" y="460" width="60" height="30" as="geometry" />
        </mxCell>
        <mxCell id="XbLqfCah3fl3YUQZX58t-77" value="&lt;font color=&quot;#ea6b66&quot; style=&quot;font-size: 14px;&quot;&gt;$$A$$&lt;/font&gt;" style="text;html=1;align=center;verticalAlign=middle;whiteSpace=wrap;rounded=0;" parent="1" vertex="1">
          <mxGeometry x="370" y="300" width="60" height="30" as="geometry" />
        </mxCell>
        <mxCell id="XbLqfCah3fl3YUQZX58t-79" value="&lt;font color=&quot;#7ea6e0&quot; size=&quot;1&quot; style=&quot;&quot;&gt;&lt;i style=&quot;font-size: 12px;&quot;&gt;expander by 2&lt;/i&gt;&lt;/font&gt;" style="text;html=1;align=center;verticalAlign=middle;whiteSpace=wrap;rounded=0;" parent="1" vertex="1">
          <mxGeometry x="180" y="431" width="60" height="30" as="geometry" />
        </mxCell>
        <mxCell id="vATTEQi2Xg5Cd0TOgJEv-1" value="&lt;font color=&quot;#ea6b66&quot; style=&quot;font-size: 14px;&quot;&gt;$$0$$&lt;/font&gt;" style="text;html=1;align=center;verticalAlign=middle;whiteSpace=wrap;rounded=0;" parent="1" vertex="1">
          <mxGeometry x="150" y="530" width="60" height="30" as="geometry" />
        </mxCell>
        <mxCell id="vATTEQi2Xg5Cd0TOgJEv-2" value="&lt;font color=&quot;#ea6b66&quot; style=&quot;font-size: 14px;&quot;&gt;$$0$$&lt;/font&gt;" style="text;html=1;align=center;verticalAlign=middle;whiteSpace=wrap;rounded=0;" parent="1" vertex="1">
          <mxGeometry x="320" y="530" width="60" height="30" as="geometry" />
        </mxCell>
        <mxCell id="vATTEQi2Xg5Cd0TOgJEv-4" value="" style="endArrow=blockThin;html=1;rounded=0;strokeWidth=2;endFill=1;" parent="1" edge="1">
          <mxGeometry width="50" height="50" relative="1" as="geometry">
            <mxPoint x="500" y="379" as="sourcePoint" />
            <mxPoint x="810" y="379" as="targetPoint" />
          </mxGeometry>
        </mxCell>
        <mxCell id="vATTEQi2Xg5Cd0TOgJEv-6" value="" style="pointerEvents=1;verticalLabelPosition=bottom;shadow=0;dashed=0;align=center;html=1;verticalAlign=top;shape=mxgraph.electrical.waveforms.sine_wave;fillColor=#d5e8d4;strokeColor=#82b366;strokeWidth=2;" parent="1" vertex="1">
          <mxGeometry x="530" y="327" width="120" height="104" as="geometry" />
        </mxCell>
        <mxCell id="vATTEQi2Xg5Cd0TOgJEv-7" value="" style="pointerEvents=1;verticalLabelPosition=bottom;shadow=0;dashed=0;align=center;html=1;verticalAlign=top;shape=mxgraph.electrical.waveforms.sine_wave;fillColor=#d5e8d4;strokeColor=#82b366;strokeWidth=2;" parent="1" vertex="1">
          <mxGeometry x="650" y="327" width="120" height="104" as="geometry" />
        </mxCell>
        <mxCell id="vATTEQi2Xg5Cd0TOgJEv-8" value="" style="endArrow=oval;html=1;rounded=0;strokeColor=#EA6B66;strokeWidth=3;fillColor=#ffe6cc;endFill=1;" parent="1" edge="1">
          <mxGeometry width="50" height="50" relative="1" as="geometry">
            <mxPoint x="560" y="379" as="sourcePoint" />
            <mxPoint x="560" y="341" as="targetPoint" />
          </mxGeometry>
        </mxCell>
        <mxCell id="vATTEQi2Xg5Cd0TOgJEv-9" value="" style="endArrow=oval;html=1;rounded=0;strokeColor=#EA6B66;strokeWidth=3;fillColor=#ffe6cc;endFill=1;" parent="1" edge="1">
          <mxGeometry width="50" height="50" relative="1" as="geometry">
            <mxPoint x="680" y="379" as="sourcePoint" />
            <mxPoint x="680" y="341" as="targetPoint" />
          </mxGeometry>
        </mxCell>
        <mxCell id="vATTEQi2Xg5Cd0TOgJEv-10" value="" style="endArrow=oval;html=1;rounded=0;strokeColor=#EA6B66;strokeWidth=3;fillColor=#ffe6cc;endFill=1;" parent="1" edge="1">
          <mxGeometry width="50" height="50" relative="1" as="geometry">
            <mxPoint x="620.0033333333334" y="379" as="sourcePoint" />
            <mxPoint x="620.0033333333334" y="417" as="targetPoint" />
          </mxGeometry>
        </mxCell>
        <mxCell id="vATTEQi2Xg5Cd0TOgJEv-11" value="" style="endArrow=oval;html=1;rounded=0;strokeColor=#EA6B66;strokeWidth=3;fillColor=#ffe6cc;endFill=1;" parent="1" edge="1">
          <mxGeometry width="50" height="50" relative="1" as="geometry">
            <mxPoint x="740.0033333333334" y="379" as="sourcePoint" />
            <mxPoint x="740.0033333333334" y="417" as="targetPoint" />
          </mxGeometry>
        </mxCell>
        <mxCell id="vATTEQi2Xg5Cd0TOgJEv-14" value="$$n$$" style="text;html=1;align=center;verticalAlign=middle;whiteSpace=wrap;rounded=0;" parent="1" vertex="1">
          <mxGeometry x="780" y="379" width="60" height="30" as="geometry" />
        </mxCell>
        <mxCell id="vATTEQi2Xg5Cd0TOgJEv-15" value="$$0$$" style="text;html=1;align=center;verticalAlign=middle;whiteSpace=wrap;rounded=0;" parent="1" vertex="1">
          <mxGeometry x="530" y="379" width="60" height="30" as="geometry" />
        </mxCell>
        <mxCell id="vATTEQi2Xg5Cd0TOgJEv-16" value="$$1$$" style="text;html=1;align=center;verticalAlign=middle;whiteSpace=wrap;rounded=0;" parent="1" vertex="1">
          <mxGeometry x="590" y="349" width="60" height="30" as="geometry" />
        </mxCell>
        <mxCell id="vATTEQi2Xg5Cd0TOgJEv-17" value="$$2$$" style="text;html=1;align=center;verticalAlign=middle;whiteSpace=wrap;rounded=0;" parent="1" vertex="1">
          <mxGeometry x="650" y="379" width="60" height="30" as="geometry" />
        </mxCell>
        <mxCell id="vATTEQi2Xg5Cd0TOgJEv-18" value="$$3$$" style="text;html=1;align=center;verticalAlign=middle;whiteSpace=wrap;rounded=0;" parent="1" vertex="1">
          <mxGeometry x="710" y="349" width="60" height="30" as="geometry" />
        </mxCell>
        <mxCell id="vATTEQi2Xg5Cd0TOgJEv-19" value="" style="endArrow=blockThin;html=1;rounded=0;strokeWidth=2;endFill=1;" parent="1" edge="1">
          <mxGeometry width="50" height="50" relative="1" as="geometry">
            <mxPoint x="500" y="539" as="sourcePoint" />
            <mxPoint x="810" y="539" as="targetPoint" />
          </mxGeometry>
        </mxCell>
        <mxCell id="vATTEQi2Xg5Cd0TOgJEv-20" value="" style="pointerEvents=1;verticalLabelPosition=bottom;shadow=0;dashed=0;align=center;html=1;verticalAlign=top;shape=mxgraph.electrical.waveforms.sine_wave;fillColor=#d5e8d4;strokeColor=#82b366;strokeWidth=2;" parent="1" vertex="1">
          <mxGeometry x="530" y="487" width="120" height="104" as="geometry" />
        </mxCell>
        <mxCell id="vATTEQi2Xg5Cd0TOgJEv-21" value="" style="pointerEvents=1;verticalLabelPosition=bottom;shadow=0;dashed=0;align=center;html=1;verticalAlign=top;shape=mxgraph.electrical.waveforms.sine_wave;fillColor=#d5e8d4;strokeColor=#82b366;strokeWidth=2;" parent="1" vertex="1">
          <mxGeometry x="650" y="487" width="120" height="104" as="geometry" />
        </mxCell>
        <mxCell id="vATTEQi2Xg5Cd0TOgJEv-22" value="" style="endArrow=oval;html=1;rounded=0;strokeColor=#EA6B66;strokeWidth=3;fillColor=#ffe6cc;endFill=1;" parent="1" edge="1">
          <mxGeometry width="50" height="50" relative="1" as="geometry">
            <mxPoint x="560" y="539" as="sourcePoint" />
            <mxPoint x="560" y="501" as="targetPoint" />
          </mxGeometry>
        </mxCell>
        <mxCell id="vATTEQi2Xg5Cd0TOgJEv-23" value="" style="endArrow=oval;html=1;rounded=0;strokeColor=#EA6B66;strokeWidth=3;fillColor=#ffe6cc;endFill=1;" parent="1" edge="1">
          <mxGeometry width="50" height="50" relative="1" as="geometry">
            <mxPoint x="680" y="539" as="sourcePoint" />
            <mxPoint x="680" y="501" as="targetPoint" />
          </mxGeometry>
        </mxCell>
        <mxCell id="vATTEQi2Xg5Cd0TOgJEv-24" value="" style="endArrow=oval;html=1;rounded=0;strokeColor=#EA6B66;strokeWidth=3;fillColor=#ffe6cc;endFill=1;" parent="1" edge="1">
          <mxGeometry width="50" height="50" relative="1" as="geometry">
            <mxPoint x="620.0033333333334" y="539" as="sourcePoint" />
            <mxPoint x="620.0033333333334" y="577" as="targetPoint" />
          </mxGeometry>
        </mxCell>
        <mxCell id="vATTEQi2Xg5Cd0TOgJEv-25" value="" style="endArrow=oval;html=1;rounded=0;strokeColor=#EA6B66;strokeWidth=3;fillColor=#ffe6cc;endFill=1;" parent="1" edge="1">
          <mxGeometry width="50" height="50" relative="1" as="geometry">
            <mxPoint x="740.0033333333334" y="539" as="sourcePoint" />
            <mxPoint x="740.0033333333334" y="577" as="targetPoint" />
          </mxGeometry>
        </mxCell>
        <mxCell id="vATTEQi2Xg5Cd0TOgJEv-26" value="$$n$$" style="text;html=1;align=center;verticalAlign=middle;whiteSpace=wrap;rounded=0;" parent="1" vertex="1">
          <mxGeometry x="780" y="539" width="60" height="30" as="geometry" />
        </mxCell>
        <mxCell id="vATTEQi2Xg5Cd0TOgJEv-27" value="$$0$$" style="text;html=1;align=center;verticalAlign=middle;whiteSpace=wrap;rounded=0;" parent="1" vertex="1">
          <mxGeometry x="530" y="539" width="60" height="30" as="geometry" />
        </mxCell>
        <mxCell id="vATTEQi2Xg5Cd0TOgJEv-28" value="$$1$$" style="text;html=1;align=center;verticalAlign=middle;whiteSpace=wrap;rounded=0;" parent="1" vertex="1">
          <mxGeometry x="560" y="539" width="60" height="30" as="geometry" />
        </mxCell>
        <mxCell id="vATTEQi2Xg5Cd0TOgJEv-29" value="$$2$$" style="text;html=1;align=center;verticalAlign=middle;whiteSpace=wrap;rounded=0;" parent="1" vertex="1">
          <mxGeometry x="590" y="514" width="60" height="30" as="geometry" />
        </mxCell>
        <mxCell id="vATTEQi2Xg5Cd0TOgJEv-30" value="$$3$$" style="text;html=1;align=center;verticalAlign=middle;whiteSpace=wrap;rounded=0;" parent="1" vertex="1">
          <mxGeometry x="620" y="539" width="60" height="30" as="geometry" />
        </mxCell>
        <mxCell id="vATTEQi2Xg5Cd0TOgJEv-31" value="" style="endArrow=oval;html=1;rounded=0;strokeColor=#EA6B66;strokeWidth=3;fillColor=#ffe6cc;endFill=1;" parent="1" edge="1">
          <mxGeometry width="50" height="50" relative="1" as="geometry">
            <mxPoint x="440" y="580" as="sourcePoint" />
            <mxPoint x="440" y="580" as="targetPoint" />
          </mxGeometry>
        </mxCell>
        <mxCell id="vATTEQi2Xg5Cd0TOgJEv-32" value="" style="shape=waypoint;sketch=0;fillStyle=solid;size=6;pointerEvents=1;points=[];fillColor=#fa6800;resizable=0;rotatable=0;perimeter=centerPerimeter;snapToPoint=1;strokeColor=#FFE599;strokeWidth=3;fontColor=#000000;" parent="1" vertex="1">
          <mxGeometry x="580" y="529" width="20" height="20" as="geometry" />
        </mxCell>
        <mxCell id="vATTEQi2Xg5Cd0TOgJEv-34" value="" style="shape=waypoint;sketch=0;fillStyle=solid;size=6;pointerEvents=1;points=[];fillColor=#fa6800;resizable=0;rotatable=0;perimeter=centerPerimeter;snapToPoint=1;strokeColor=#FFE599;strokeWidth=3;fontColor=#000000;" parent="1" vertex="1">
          <mxGeometry x="640" y="529" width="20" height="20" as="geometry" />
        </mxCell>
        <mxCell id="vATTEQi2Xg5Cd0TOgJEv-35" value="" style="shape=waypoint;sketch=0;fillStyle=solid;size=6;pointerEvents=1;points=[];fillColor=#fa6800;resizable=0;rotatable=0;perimeter=centerPerimeter;snapToPoint=1;strokeColor=#FFE599;strokeWidth=3;fontColor=#000000;" parent="1" vertex="1">
          <mxGeometry x="700" y="529" width="20" height="20" as="geometry" />
        </mxCell>
        <mxCell id="vATTEQi2Xg5Cd0TOgJEv-36" value="" style="shape=waypoint;sketch=0;fillStyle=solid;size=6;pointerEvents=1;points=[];fillColor=#fa6800;resizable=0;rotatable=0;perimeter=centerPerimeter;snapToPoint=1;strokeColor=#FFE599;strokeWidth=3;fontColor=#000000;" parent="1" vertex="1">
          <mxGeometry x="760" y="529" width="20" height="20" as="geometry" />
        </mxCell>
        <mxCell id="vATTEQi2Xg5Cd0TOgJEv-37" value="$$4$$" style="text;html=1;align=center;verticalAlign=middle;whiteSpace=wrap;rounded=0;" parent="1" vertex="1">
          <mxGeometry x="650" y="539" width="60" height="30" as="geometry" />
        </mxCell>
        <mxCell id="vATTEQi2Xg5Cd0TOgJEv-38" value="$$5$$" style="text;html=1;align=center;verticalAlign=middle;whiteSpace=wrap;rounded=0;" parent="1" vertex="1">
          <mxGeometry x="680" y="539" width="60" height="30" as="geometry" />
        </mxCell>
        <mxCell id="vATTEQi2Xg5Cd0TOgJEv-39" value="$$6$$" style="text;html=1;align=center;verticalAlign=middle;whiteSpace=wrap;rounded=0;" parent="1" vertex="1">
          <mxGeometry x="710" y="514" width="60" height="30" as="geometry" />
        </mxCell>
        <mxCell id="vATTEQi2Xg5Cd0TOgJEv-40" value="$$7$$" style="text;html=1;align=center;verticalAlign=middle;whiteSpace=wrap;rounded=0;" parent="1" vertex="1">
          <mxGeometry x="740" y="514" width="60" height="30" as="geometry" />
        </mxCell>
        <mxCell id="vATTEQi2Xg5Cd0TOgJEv-43" value="&lt;font color=&quot;#7ea6e0&quot; size=&quot;1&quot; style=&quot;&quot;&gt;&lt;i style=&quot;font-size: 12px;&quot;&gt;expander by 2&lt;/i&gt;&lt;/font&gt;" style="text;html=1;align=center;verticalAlign=middle;whiteSpace=wrap;rounded=0;" parent="1" vertex="1">
          <mxGeometry x="610" y="431" width="60" height="30" as="geometry" />
        </mxCell>
        <mxCell id="vATTEQi2Xg5Cd0TOgJEv-44" value="" style="endArrow=baseDash;startArrow=baseDash;html=1;rounded=0;endFill=0;startFill=0;strokeWidth=2;fillColor=#fff2cc;strokeColor=#FFCCE6;" parent="1" edge="1">
          <mxGeometry width="50" height="50" relative="1" as="geometry">
            <mxPoint x="560" y="328.87" as="sourcePoint" />
            <mxPoint x="620" y="328.87" as="targetPoint" />
          </mxGeometry>
        </mxCell>
        <mxCell id="vATTEQi2Xg5Cd0TOgJEv-45" value="" style="endArrow=baseDash;startArrow=baseDash;html=1;rounded=0;endFill=0;startFill=0;strokeWidth=2;fillColor=#fff2cc;strokeColor=#FFCCE6;" parent="1" edge="1">
          <mxGeometry width="50" height="50" relative="1" as="geometry">
            <mxPoint x="560" y="488.34999999999997" as="sourcePoint" />
            <mxPoint x="590" y="488" as="targetPoint" />
          </mxGeometry>
        </mxCell>
        <mxCell id="vATTEQi2Xg5Cd0TOgJEv-48" value="" style="endArrow=baseDash;startArrow=baseDash;html=1;rounded=0;endFill=0;startFill=0;strokeWidth=2;fillColor=#fff2cc;strokeColor=#FFCCE6;" parent="1" edge="1">
          <mxGeometry width="50" height="50" relative="1" as="geometry">
            <mxPoint x="620" y="329" as="sourcePoint" />
            <mxPoint x="680" y="329" as="targetPoint" />
          </mxGeometry>
        </mxCell>
        <mxCell id="vATTEQi2Xg5Cd0TOgJEv-49" value="" style="endArrow=baseDash;startArrow=baseDash;html=1;rounded=0;endFill=0;startFill=0;strokeWidth=2;fillColor=#fff2cc;strokeColor=#FFCCE6;" parent="1" edge="1">
          <mxGeometry width="50" height="50" relative="1" as="geometry">
            <mxPoint x="680" y="329" as="sourcePoint" />
            <mxPoint x="740" y="329" as="targetPoint" />
          </mxGeometry>
        </mxCell>
        <mxCell id="vATTEQi2Xg5Cd0TOgJEv-50" value="" style="endArrow=baseDash;startArrow=baseDash;html=1;rounded=0;endFill=0;startFill=0;strokeWidth=2;fillColor=#fff2cc;strokeColor=#FFCCE6;" parent="1" edge="1">
          <mxGeometry width="50" height="50" relative="1" as="geometry">
            <mxPoint x="740" y="329" as="sourcePoint" />
            <mxPoint x="800" y="329" as="targetPoint" />
          </mxGeometry>
        </mxCell>
        <mxCell id="vATTEQi2Xg5Cd0TOgJEv-52" value="" style="endArrow=baseDash;startArrow=baseDash;html=1;rounded=0;endFill=0;startFill=0;strokeWidth=2;fillColor=#fff2cc;strokeColor=#FFCCE6;" parent="1" edge="1">
          <mxGeometry width="50" height="50" relative="1" as="geometry">
            <mxPoint x="590" y="488.34999999999997" as="sourcePoint" />
            <mxPoint x="620" y="488" as="targetPoint" />
          </mxGeometry>
        </mxCell>
        <mxCell id="vATTEQi2Xg5Cd0TOgJEv-53" value="" style="endArrow=baseDash;startArrow=baseDash;html=1;rounded=0;endFill=0;startFill=0;strokeWidth=2;fillColor=#fff2cc;strokeColor=#FFCCE6;" parent="1" edge="1">
          <mxGeometry width="50" height="50" relative="1" as="geometry">
            <mxPoint x="620" y="488.3499999999999" as="sourcePoint" />
            <mxPoint x="650" y="488" as="targetPoint" />
          </mxGeometry>
        </mxCell>
        <mxCell id="vATTEQi2Xg5Cd0TOgJEv-54" value="" style="endArrow=baseDash;startArrow=baseDash;html=1;rounded=0;endFill=0;startFill=0;strokeWidth=2;fillColor=#fff2cc;strokeColor=#FFCCE6;" parent="1" edge="1">
          <mxGeometry width="50" height="50" relative="1" as="geometry">
            <mxPoint x="650" y="488.3499999999999" as="sourcePoint" />
            <mxPoint x="680" y="488" as="targetPoint" />
          </mxGeometry>
        </mxCell>
        <mxCell id="vATTEQi2Xg5Cd0TOgJEv-55" value="" style="endArrow=baseDash;startArrow=baseDash;html=1;rounded=0;endFill=0;startFill=0;strokeWidth=2;fillColor=#fff2cc;strokeColor=#FFCCE6;" parent="1" edge="1">
          <mxGeometry width="50" height="50" relative="1" as="geometry">
            <mxPoint x="680" y="488.3499999999999" as="sourcePoint" />
            <mxPoint x="710" y="488" as="targetPoint" />
          </mxGeometry>
        </mxCell>
        <mxCell id="vATTEQi2Xg5Cd0TOgJEv-56" value="" style="endArrow=baseDash;startArrow=baseDash;html=1;rounded=0;endFill=0;startFill=0;strokeWidth=2;fillColor=#fff2cc;strokeColor=#FFCCE6;fontStyle=1" parent="1" edge="1">
          <mxGeometry width="50" height="50" relative="1" as="geometry">
            <mxPoint x="710" y="488.3499999999999" as="sourcePoint" />
            <mxPoint x="740" y="488" as="targetPoint" />
          </mxGeometry>
        </mxCell>
        <mxCell id="vATTEQi2Xg5Cd0TOgJEv-57" value="" style="endArrow=baseDash;startArrow=baseDash;html=1;rounded=0;endFill=0;startFill=0;strokeWidth=2;fillColor=#fff2cc;strokeColor=#FFCCE6;fontStyle=1" parent="1" edge="1">
          <mxGeometry width="50" height="50" relative="1" as="geometry">
            <mxPoint x="740" y="488.3499999999999" as="sourcePoint" />
            <mxPoint x="770" y="488" as="targetPoint" />
          </mxGeometry>
        </mxCell>
        <mxCell id="vATTEQi2Xg5Cd0TOgJEv-58" value="&lt;font color=&quot;#ffcce6&quot; style=&quot;font-size: 14px;&quot;&gt;&lt;b&gt;$$\pi$$&lt;/b&gt;&lt;/font&gt;" style="text;html=1;align=center;verticalAlign=middle;whiteSpace=wrap;rounded=0;" parent="1" vertex="1">
          <mxGeometry x="559" y="305" width="60" height="30" as="geometry" />
        </mxCell>
        <mxCell id="vATTEQi2Xg5Cd0TOgJEv-59" value="&lt;font color=&quot;#ffcce6&quot; style=&quot;font-size: 14px;&quot;&gt;&lt;b&gt;$$\pi/2$$&lt;/b&gt;&lt;/font&gt;" style="text;html=1;align=center;verticalAlign=middle;whiteSpace=wrap;rounded=0;" parent="1" vertex="1">
          <mxGeometry x="545" y="456" width="60" height="30" as="geometry" />
        </mxCell>
        <mxCell id="TgrVWBvpD5o5OTefZq5I-1" value="" style="shape=waypoint;sketch=0;fillStyle=solid;size=6;pointerEvents=1;points=[];fillColor=#fa6800;resizable=0;rotatable=0;perimeter=centerPerimeter;snapToPoint=1;strokeColor=#FFE599;strokeWidth=3;fontColor=#000000;" vertex="1" parent="1">
          <mxGeometry x="520" y="529" width="20" height="20" as="geometry" />
        </mxCell>
      </root>
    </mxGraphModel>
  </diagram>
</mxfile>
